<svg xmlns="http://www.w3.org/2000/svg" viewBox="0 0 70 70"><path d="M35.078.157C15.792.158.158 15.743.157 34.972.158 54.2 15.792 69.786 35.078 69.787 54.366 69.786 69.999 54.199 70 34.972 69.999 15.743 54.366.158 35.078.157zm23.035 57.779a32.516 32.516 0 0 1-23.035 9.512 32.52 32.52 0 0 1-23.034-9.512c-5.897-5.881-9.541-13.993-9.542-22.965.001-8.971 3.645-17.083 9.542-22.964a32.521 32.521 0 0 1 23.034-9.512c9 0 17.136 3.633 23.035 9.512C64.01 17.888 67.654 26 67.655 34.972c-.001 8.971-3.645 17.083-9.542 22.964z"/><path d="M46.246 20.172v8.391c0 .599.524 1.084 1.171 1.084s1.171-.485 1.171-1.084V17.555c0-.438-.286-.834-.723-1.002a1.24 1.24 0 0 0-1.276.235L35.412 27.137l1.656 1.534 9.178-8.499zm9.833 9.558a1.226 1.226 0 0 0-1.268.235l-8.694 8.094 1.646 1.534 6.712-6.249.019 8.398c.002.599.524 1.083 1.167 1.082.643-.001 1.164-.488 1.162-1.086l-.024-11.008c-.001-.439-.284-.833-.72-1zM22.862 16.801a1.142 1.142 0 0 0-1.238-.244 1.126 1.126 0 0 0-.701 1.04v11.429c0 .622.509 1.126 1.136 1.126a1.13 1.13 0 0 0 1.136-1.126v-8.711l9.712 9.622-7.686 7.614 1.607 1.592 7.685-7.615 8.479 8.401-8.491 8.412-19.385-19.207a1.144 1.144 0 0 0-1.239-.244 1.128 1.128 0 0 0-.701 1.042L13.2 41.36a1.13 1.13 0 0 0 1.138 1.123 1.13 1.13 0 0 0 1.134-1.128l-.018-8.703 7.354 7.287-6.98 6.915a1.118 1.118 0 0 0 0 1.592c.443.44 1.163.44 1.607 0l6.98-6.916 9.282 9.197c.443.44 1.163.44 1.607 0l9.294-9.208 6.991 6.927c.444.44 1.163.44 1.607 0a1.118 1.118 0 0 0 0-1.592L22.862 16.801z"/></svg>