<?xml version="1.0" encoding="utf-8"?>
<!-- Generator: Adobe Illustrator 19.1.0, SVG Export Plug-In . SVG Version: 6.00 Build 0)  -->
<svg version="1.1" xmlns="http://www.w3.org/2000/svg" xmlns:xlink="http://www.w3.org/1999/xlink" x="0px" y="0px"
	 viewBox="-28 30 42 42" style="enable-background:new -28 30 42 42;" xml:space="preserve">
<g id="Layer_2">
</g>
<g id="Layer_1">
	<path d="M-28,30v42h42V30H-28z M4.3,41.3c-0.1,0.5-0.3,0.9-0.5,1.3c-0.1,0.2-0.2,0.4-0.4,0.5c-0.3,0.2-0.6,0.3-1,0.4
		c-0.2,0-0.5,0-0.7,0c-0.7,0-1.5,0-2.2,0c-0.4,0-0.8,0-1.2,0c-0.3,0-0.5,0-0.8,0c-0.6,0-1.1,0-1.7,0c-0.6,0-1.1,0-1.7,0
		c-0.4,0-0.8,0-1.2,0c-0.7,0-1.3,0-2,0c0,0-0.1,0-0.1,0c-0.3,1.6-0.7,3.2-1,4.9c0,0,0.1,0,0.1,0c0,0,0.1,0,0.1,0c0.8,0,1.6,0,2.4,0
		c1.4,0,2.7,0,4.1,0c0.3,0,0.6,0,0.8,0c0.4,0,0.8,0,1.1,0.1c0.3,0.1,0.6,0.1,0.9,0.3c0.3,0.2,0.4,0.5,0.5,0.8c0.1,0.3,0,0.7,0,1
		c-0.1,0.4-0.2,0.8-0.4,1.2c-0.3,0.6-0.8,0.9-1.4,1c-0.2,0-0.4,0-0.6,0.1c-0.5,0-1.1,0-1.6,0c-1,0-1.9,0-2.9,0c-0.5,0-1,0-1.6,0
		c-0.6,0-1.3,0-1.9,0c-0.2,0-0.4,0-0.6,0c-0.4,1.8-0.7,3.5-1.1,5.3c0.1,0,0.1,0,0.1,0c0.5,0,1.1,0,1.6,0c0.4,0,0.8,0,1.2,0
		c0.3,0,0.6,0,1,0c0.3,0,0.6,0,0.9,0c0.3,0,0.6,0,0.8,0c0.3,0,0.5,0,0.8,0c0.5,0,1.1,0,1.6,0c0.6,0,1.2,0,1.8,0c0.3,0,0.7,0,1,0
		c0.4,0,0.7,0.1,1.1,0.2c0.3,0.1,0.5,0.2,0.7,0.5c0.2,0.2,0.2,0.4,0.3,0.7c0,0.3,0,0.6,0,0.9c-0.1,0.5-0.3,1-0.5,1.5
		c-0.3,0.6-0.8,0.9-1.5,1c-0.3,0-0.6,0-0.8,0.1c-0.8,0-1.6,0.1-2.5,0.1c-0.3,0-0.6,0-0.9,0c-0.3,0-0.6,0-0.9,0c-0.5,0-1.1,0-1.6,0
		c-0.6,0-1.1,0-1.7,0c-0.3,0-0.5,0-0.8,0c-0.5,0-1.1,0-1.6,0c-0.3,0-0.6,0-0.9,0c-0.8,0-1.7,0-2.5,0c-0.4,0-0.8-0.1-1.1-0.2
		c-0.7-0.3-1.1-0.8-1.3-1.5c-0.1-0.3-0.1-0.6-0.1-0.9c0-0.6,0.2-1.1,0.3-1.6c0.1-0.5,0.2-1.1,0.3-1.6c0.2-1.1,0.5-2.3,0.7-3.4
		c0.2-1,0.4-2.1,0.6-3.1c0.2-1.1,0.5-2.2,0.7-3.4c0.2-1,0.4-2,0.6-2.9c0.2-1,0.4-2,0.6-3c0.1-0.5,0.2-0.9,0.4-1.3
		c0.4-0.7,1-1.2,1.8-1.5c0.3-0.1,0.6-0.1,1-0.1c0.2,0,0.5,0,0.7,0c0.4,0,0.8,0,1.2,0c0.2,0,0.4,0,0.6,0c0.4,0,0.7,0,1.1,0
		c0.3,0,0.6,0,0.9,0c0.4,0,0.8,0,1.2,0c0.5,0,1,0,1.5,0c0.5,0,1,0,1.6,0c0.4,0,0.8,0,1.3,0c0.3,0,0.7,0,1,0c0.5,0,1.1,0,1.6,0
		c0.4,0,0.8,0,1.2,0.1c0.3,0.1,0.6,0.2,0.9,0.3c0.3,0.2,0.5,0.5,0.6,0.9C4.4,40.6,4.4,40.9,4.3,41.3z"/>
</g>
</svg>
