<?xml version="1.0" encoding="utf-8"?>
<!-- Generator: Adobe Illustrator 19.1.0, SVG Export Plug-In . SVG Version: 6.00 Build 0)  -->
<!DOCTYPE svg PUBLIC "-//W3C//DTD SVG 1.1//EN" "http://www.w3.org/Graphics/SVG/1.1/DTD/svg11.dtd">
<svg version="1.1" id="instagram" xmlns="http://www.w3.org/2000/svg" xmlns:xlink="http://www.w3.org/1999/xlink" x="0px" y="0px"
	 viewBox="0 0 42.035 42.0229" enable-background="new 0 0 42.035 42.0229" xml:space="preserve">
<path d="M0,0v42.0229h42.035V0H0z M33.079,28.2349c0,2.581-2.093,4.674-4.6751,4.674H14.117c-2.581,0-4.675-2.093-4.675-4.674v-10.6
	h6.874c-0.704,0.989-1.119,2.197-1.119,3.502c0,3.341,2.708,6.049,6.048,6.049c3.341,0,6.049-2.708,6.049-6.049
	c0-1.305-0.416-2.513-1.12-3.502h6.905V28.2349z M16.586,21.1369c0-1.394,0.617-2.647,1.591-3.502
	c0.342-0.299,0.728-0.55,1.146-0.741c0.587-0.266,1.237-0.416,1.922-0.416c0.686,0,1.336,0.15,1.922,0.416
	c0.419,0.191,0.805,0.442,1.147,0.741c0.974,0.855,1.591,2.108,1.591,3.502c0,2.57-2.09,4.66-4.66,4.66
	C18.676,25.7969,16.586,23.7069,16.586,21.1369z M33.079,16.8939h-7.525c-1.097-1.113-2.622-1.805-4.309-1.805
	c-1.687,0-3.211,0.692-4.308,1.805H9.442v-3.07c0-1.576,0.781-2.968,1.975-3.815v5.034h0.959v-5.557
	c0.217-0.087,0.443-0.158,0.675-0.213v5.77h0.958v-5.891c0.037,0,0.072-0.002,0.108-0.002h0.554v5.893h0.958v-5.893h12.775
	c2.582,0,4.6751,2.093,4.6751,4.674V16.8939z"/>
</svg>
