<?xml version="1.0" encoding="utf-8"?>
<!-- Generator: Adobe Illustrator 19.1.0, SVG Export Plug-In . SVG Version: 6.00 Build 0)  -->
<!DOCTYPE svg PUBLIC "-//W3C//DTD SVG 1.1//EN" "http://www.w3.org/Graphics/SVG/1.1/DTD/svg11.dtd">
<svg version="1.1" id="twitter" xmlns="http://www.w3.org/2000/svg" xmlns:xlink="http://www.w3.org/1999/xlink" x="0px" y="0px"
	 viewBox="0 0 42.035 42.0229" enable-background="new 0 0 42.035 42.0229" xml:space="preserve">
<path d="M0,0v42.0229h42.035V0H0z M31.626,17.4079c0.308,6.857-4.8051,14.501-13.856,14.501c-2.752,0-5.315-0.807-7.472-2.191
	c2.586,0.306,5.168-0.412,7.217-2.018c-2.133-0.04-3.934-1.449-4.553-3.3849c0.763,0.146,1.514,0.103,2.2-0.084
	c-2.344-0.471-3.962-2.583-3.91-4.841c0.658,0.365,1.41,0.584,2.209,0.609c-2.171-1.45-2.786-4.317-1.508-6.508
	c2.403,2.95,5.995,4.89,10.046,5.094c-0.71-3.05,1.603-5.986,4.749-5.986c1.403,0,2.669,0.592,3.558,1.539
	c1.11-0.218,2.154-0.624,3.095-1.183c-0.363,1.139-1.136,2.095-2.143,2.697c0.986-0.117,1.926-0.38,2.8001-0.767
	C33.405,15.8629,32.578,16.7209,31.626,17.4079z"/>
</svg>
